<svg aria-hidden="true" style="position: absolute; width: 0; height: 0; overflow: hidden;" version="1.1" xmlns="http://www.w3.org/2000/svg" xmlns:xlink="http://www.w3.org/1999/xlink">
<defs>
<symbol id="fa" viewBox="0 0 25 28">
<path d="M24 8v13.109c0 0.484-0.313 0.844-0.766 0.969-1.672 0.5-3.547 0.812-5.281 0.812-2.344 0-4.328-0.922-6.922-0.922-1.922 0-3.906 0.313-5.781 0.75v5.281h-2.5v-21.375c-1.313-0.516-2.172-1.797-2.172-3.203 0-1.891 1.531-3.422 3.422-3.422s3.422 1.531 3.422 3.422c0 1.406-0.859 2.688-2.172 3.203v1.062c1.75-0.406 3.563-0.688 5.359-0.688 1.031 0 2.063 0.078 3.094 0.234 1.344 0.203 2.703 0.672 4.078 0.672 0.859 0 1.734-0.109 2.578-0.281 0.641-0.125 2.109-0.625 2.641-0.625 0.547 0 1 0.453 1 1z"></path>
</symbol>
<symbol id="grid" viewBox="0 0 20 20">
<path d="M8 4h-3c-0.553 0-1 0.447-1 1v3c0 0.552 0.447 1 1 1h3c0.553 0 1-0.448 1-1v-3c0-0.552-0.447-1-1-1zM15 4h-3c-0.553 0-1 0.447-1 1v3c0 0.552 0.447 1 1 1h3c0.553 0 1-0.448 1-1v-3c0-0.552-0.447-1-1-1zM8 11h-3c-0.553 0-1 0.447-1 1v3c0 0.552 0.447 1 1 1h3c0.553 0 1-0.448 1-1v-3c0-0.552-0.447-1-1-1zM15 11h-3c-0.553 0-1 0.447-1 1v3c0 0.552 0.447 1 1 1h3c0.553 0 1-0.448 1-1v-3c0-0.552-0.447-1-1-1z"></path>
</symbol>
<symbol id="camera" viewBox="0 0 512 512"><path fill="currentColor" d="M512 144v288c0 26.5-21.5 48-48 48H48c-26.5 0-48-21.5-48-48V144c0-26.5 21.5-48 48-48h88l12.3-32.9c7-18.7 24.9-31.1 44.9-31.1h125.5c20 0 37.9 12.4 44.9 31.1L376 96h88c26.5 0 48 21.5 48 48zM376 288c0-66.2-53.8-120-120-120s-120 53.8-120 120 53.8 120 120 120 120-53.8 120-120zm-32 0c0 48.5-39.5 88-88 88s-88-39.5-88-88 39.5-88 88-88 88 39.5 88 88z"></path></symbol>
</defs>
</svg>
